<?xml version="1.0" encoding="utf-8"?>
<!-- Generator: Adobe Illustrator 23.1.0, SVG Export Plug-In . SVG Version: 6.00 Build 0)  -->
<svg version="1.1" id="Layer_1" xmlns="http://www.w3.org/2000/svg" xmlns:xlink="http://www.w3.org/1999/xlink" x="0px" y="0px"
	 viewBox="30 140 300 60" style="enable-background:new 0 0 360 360;" xml:space="preserve">
<style type="text/css">
	.st0{display:none;}
	.st1{display:inline;}
	.st2{fill:#6D6E71;}
	.st3{fill:#D92468;}
	.st4{fill:#5FBB46;}
	.st5{fill:#F26722;}
	.st6{fill:#489FD8;}
</style>
<g class="st0">
	<g class="st1">
		<path class="st2" d="M44.7,212c-0.2,0-0.4-0.2-0.4-0.4V204c0-0.2,0.2-0.4,0.4-0.4h4c0.2,0,0.4,0.2,0.4,0.4s-0.2,0.4-0.4,0.4h-3.6
			v3h2.8c0.2,0,0.4,0.2,0.4,0.4s-0.2,0.4-0.4,0.4h-2.8v3.1h3.7c0.2,0,0.4,0.2,0.4,0.4s-0.2,0.4-0.4,0.4L44.7,212L44.7,212z"/>
		<path class="st2" d="M54.2,210.3l-2.6-4.9v6.2c0,0.2-0.2,0.4-0.4,0.4s-0.4-0.2-0.4-0.4v-7.8c0-0.2,0.2-0.4,0.4-0.4
			s0.3,0.1,0.4,0.2l3,5.7l3.1-5.7c0-0.1,0.2-0.2,0.4-0.2s0.4,0.2,0.4,0.4v7.8c0,0.2-0.2,0.4-0.4,0.4s-0.4-0.2-0.4-0.4v-6.2l-2.6,4.9
			c-0.1,0.2-0.2,0.2-0.4,0.2C54.4,210.6,54.3,210.5,54.2,210.3z"/>
		<path class="st2" d="M61.3,211.6c0,0.2-0.2,0.4-0.4,0.4s-0.4-0.2-0.4-0.4v-7.7c0-0.2,0.2-0.4,0.4-0.4h2.5c1.3,0,2.4,0.8,2.4,2.5
			c0,1.6-1,2.5-2.4,2.5h-2.1C61.3,208.5,61.3,211.6,61.3,211.6z M61.3,207.6h1.9c1,0,1.7-0.6,1.7-1.7c0-1.1-0.7-1.7-1.7-1.7h-1.9
			V207.6z"/>
		<path class="st2" d="M66.8,207.7c0-3,1.5-4.4,3.9-4.4s3.9,1.4,3.9,4.4s-1.5,4.4-3.9,4.4C68.3,212.1,66.8,210.7,66.8,207.7z
			 M67.7,207.7c0,2.5,1.1,3.6,3,3.6s3-1.2,3-3.6c0-2.5-1.1-3.6-3-3.6C68.8,204.1,67.7,205.3,67.7,207.7z"/>
		<path class="st2" d="M80.2,205.3l-1.8,6.4c0,0.2-0.2,0.3-0.4,0.3c-0.2,0-0.4-0.1-0.4-0.3l-2.2-7.8c0,0,0-0.1,0-0.2
			c0-0.2,0.2-0.4,0.4-0.4c0.2,0,0.4,0.2,0.4,0.3l1.8,6.5l1.8-6.5c0-0.2,0.2-0.3,0.4-0.3s0.4,0.1,0.4,0.3l1.8,6.5l1.8-6.5
			c0-0.1,0.2-0.3,0.4-0.3s0.4,0.2,0.4,0.4c0,0,0,0.1,0,0.2l-2.2,7.8c-0.1,0.2-0.2,0.3-0.4,0.3c-0.2,0-0.4-0.1-0.4-0.3L80.2,205.3z"
			/>
		<path class="st2" d="M86.8,212c-0.2,0-0.4-0.2-0.4-0.4V204c0-0.2,0.2-0.4,0.4-0.4h4c0.2,0,0.4,0.2,0.4,0.4s-0.2,0.4-0.4,0.4h-3.6
			v3H90c0.2,0,0.4,0.2,0.4,0.4s-0.2,0.4-0.4,0.4h-2.8v3.1H91c0.2,0,0.4,0.2,0.4,0.4S91.2,212,91,212H86.8z"/>
		<path class="st2" d="M93.7,211.6c0,0.2-0.2,0.4-0.4,0.4c-0.2,0-0.4-0.2-0.4-0.4v-7.7c0-0.2,0.2-0.4,0.4-0.4h2.5
			c1.4,0,2.4,1.1,2.4,2.4c0,1.3-0.9,2.3-2.3,2.4l2.3,3.1c0.1,0.1,0.1,0.2,0.1,0.3c0,0.2-0.2,0.4-0.4,0.4c-0.1,0-0.3-0.1-0.4-0.2
			l-2.6-3.6h-1.3v3.3H93.7z M93.7,207.5h2.1c0.9,0,1.5-0.7,1.5-1.6c0-0.9-0.6-1.6-1.5-1.6h-2.1V207.5z"/>
		<path class="st2" d="M100.6,211.6c0,0.2-0.2,0.4-0.4,0.4s-0.4-0.2-0.4-0.4v-7.8c0-0.2,0.2-0.4,0.4-0.4s0.4,0.2,0.4,0.4V211.6z"/>
		<path class="st2" d="M108.5,203.8v7.8c0,0.2-0.2,0.4-0.4,0.4c-0.2,0-0.3-0.1-0.4-0.2l-4.4-6.7v6.4c0,0.2-0.2,0.4-0.4,0.4
			c-0.2,0-0.4-0.2-0.4-0.4v-7.8c0-0.2,0.2-0.4,0.4-0.4c0.2,0,0.3,0.1,0.3,0.2l4.5,6.7v-6.5c0-0.2,0.2-0.4,0.4-0.4
			S108.5,203.6,108.5,203.8z"/>
		<path class="st2" d="M116.2,210.3v-1.8h-2.1c-0.2,0-0.4-0.2-0.4-0.4s0.2-0.4,0.4-0.4h2.5c0.2,0,0.4,0.2,0.4,0.4v2.2
			c0,0.2-0.1,0.3-0.2,0.4c-0.6,0.7-1.5,1.4-3,1.4c-2.4,0-3.9-1.3-3.9-4.4c0-3,1.5-4.4,3.9-4.4c1.2,0,2.2,0.5,2.8,1.3
			c0.1,0.1,0.1,0.2,0.1,0.3c0,0.2-0.2,0.4-0.4,0.4c-0.1,0-0.2,0-0.3-0.2c-0.4-0.6-1.2-1.1-2.2-1.1c-1.9,0-3,1.2-3,3.6
			c0,2.6,1.1,3.6,3,3.6C115.1,211.4,115.8,210.9,116.2,210.3z"/>
	</g>
	<g class="st1">
		<path class="st2" d="M127.6,210.3v-1.8h-2.1c-0.2,0-0.4-0.2-0.4-0.4s0.2-0.4,0.4-0.4h2.5c0.2,0,0.4,0.2,0.4,0.4v2.2
			c0,0.2-0.1,0.3-0.2,0.4c-0.6,0.7-1.5,1.4-3,1.4c-2.4,0-3.9-1.3-3.9-4.4c0-3,1.5-4.4,3.9-4.4c1.2,0,2.2,0.5,2.8,1.3
			c0.1,0.1,0.1,0.2,0.1,0.3c0,0.2-0.2,0.4-0.4,0.4c-0.1,0-0.2,0-0.3-0.2c-0.4-0.6-1.2-1.1-2.2-1.1c-1.9,0-3,1.2-3,3.6
			c0,2.6,1.1,3.6,3,3.6C126.4,211.4,127.1,210.9,127.6,210.3z"/>
		<path class="st2" d="M130.9,211.6c0,0.2-0.2,0.4-0.4,0.4s-0.4-0.2-0.4-0.4v-7.8c0-0.2,0.2-0.4,0.4-0.4s0.4,0.2,0.4,0.4V211.6z"/>
		<path class="st2" d="M133.8,211.6c0,0.2-0.2,0.4-0.4,0.4s-0.4-0.2-0.4-0.4v-7.7c0-0.2,0.2-0.4,0.4-0.4h2.5c1.4,0,2.4,1.1,2.4,2.4
			c0,1.3-0.9,2.3-2.3,2.4l2.3,3.1c0.1,0.1,0.1,0.2,0.1,0.3c0,0.2-0.2,0.4-0.4,0.4c-0.1,0-0.3-0.1-0.4-0.2l-2.6-3.6h-1.3L133.8,211.6
			L133.8,211.6z M133.8,207.5h2.1c0.9,0,1.5-0.7,1.5-1.6c0-0.9-0.6-1.6-1.5-1.6h-2.1V207.5z"/>
		<path class="st2" d="M144.1,211.2c0.2,0,0.4,0.2,0.4,0.4s-0.2,0.4-0.4,0.4h-3.9c-0.2,0-0.4-0.2-0.4-0.4v-7.7
			c0-0.2,0.2-0.4,0.4-0.4s0.4,0.2,0.4,0.4v7.3H144.1z"/>
		<path class="st2" d="M148.4,204.1c-1.3,0-1.8,0.7-1.8,1.4c0,2.1,4.8,1.2,4.8,4.2c0,1.6-1.1,2.4-3,2.4c-1.4,0-2.5-0.7-2.9-1.5
			c0-0.1-0.1-0.2-0.1-0.2c0-0.2,0.2-0.4,0.4-0.4s0.3,0.1,0.4,0.2c0.4,0.7,1.1,1.2,2.2,1.2c1.4,0,2.2-0.6,2.2-1.7
			c0-2.4-4.8-1.2-4.8-4.2c0-1.2,0.8-2.2,2.7-2.2c1.2,0,2.2,0.5,2.7,1.3c0.1,0.1,0.1,0.2,0.1,0.2c0,0.2-0.2,0.4-0.4,0.4
			c-0.1,0-0.2,0-0.3-0.2C150.1,204.6,149.5,204.1,148.4,204.1z"/>
	</g>
	<g class="st1">
		<path class="st2" d="M157,209.5l-0.9,2.3c-0.1,0.2-0.2,0.3-0.4,0.3s-0.4-0.2-0.4-0.4c0,0,0-0.1,0-0.2l3.1-7.8
			c0.1-0.2,0.2-0.3,0.4-0.3s0.4,0.1,0.4,0.3l3.1,7.8c0,0.1,0,0.2,0,0.2c0,0.2-0.2,0.4-0.4,0.4s-0.4-0.1-0.4-0.3l-0.9-2.3H157z
			 M158.8,204.8l-1.5,3.8h3L158.8,204.8z"/>
		<path class="st2" d="M169.5,203.8v7.8c0,0.2-0.2,0.4-0.4,0.4s-0.3-0.1-0.4-0.2l-4.4-6.7v6.4c0,0.2-0.2,0.4-0.4,0.4
			s-0.4-0.2-0.4-0.4v-7.8c0-0.2,0.2-0.4,0.4-0.4s0.3,0.1,0.3,0.2l4.5,6.7v-6.5c0-0.2,0.2-0.4,0.4-0.4S169.5,203.6,169.5,203.8z"/>
		<path class="st2" d="M173.6,203.5c2.4,0,3.9,1.1,3.9,4.2s-1.5,4.2-3.9,4.2h-1.8c-0.2,0-0.4-0.2-0.4-0.4v-7.6
			c0-0.2,0.2-0.4,0.4-0.4H173.6z M172.3,211.2h1.3c1.9,0,3-0.8,3-3.4c0-2.6-1.1-3.5-3-3.5h-1.3V211.2z"/>
	</g>
	<g class="st1">
		<path class="st2" d="M186.2,205.3l-1.8,6.4c0,0.2-0.2,0.3-0.4,0.3s-0.4-0.1-0.4-0.3l-2.2-7.8c0,0,0-0.1,0-0.2
			c0-0.2,0.2-0.4,0.4-0.4s0.4,0.2,0.4,0.3l1.8,6.5l1.8-6.5c0-0.2,0.2-0.3,0.4-0.3s0.4,0.1,0.4,0.3l1.8,6.5l1.8-6.5
			c0-0.1,0.2-0.3,0.4-0.3s0.4,0.2,0.4,0.4c0,0,0,0.1,0,0.2l-2.2,7.8c-0.1,0.2-0.2,0.3-0.4,0.3s-0.4-0.1-0.4-0.3L186.2,205.3z"/>
		<path class="st2" d="M191.9,207.7c0-3,1.5-4.4,3.9-4.4s3.9,1.4,3.9,4.4s-1.5,4.4-3.9,4.4C193.4,212.1,191.9,210.7,191.9,207.7z
			 M192.8,207.7c0,2.5,1.1,3.6,3,3.6s3-1.2,3-3.6c0-2.5-1.1-3.6-3-3.6C193.9,204.1,192.8,205.3,192.8,207.7z"/>
		<path class="st2" d="M204.6,210.3l-2.6-4.9v6.2c0,0.2-0.2,0.4-0.4,0.4s-0.4-0.2-0.4-0.4v-7.8c0-0.2,0.2-0.4,0.4-0.4
			s0.3,0.1,0.4,0.2l3,5.7l3.1-5.7c0-0.1,0.2-0.2,0.4-0.2s0.4,0.2,0.4,0.4v7.8c0,0.2-0.2,0.4-0.4,0.4s-0.4-0.2-0.4-0.4v-6.2l-2.6,4.9
			c-0.1,0.2-0.2,0.2-0.4,0.2C204.9,210.6,204.7,210.5,204.6,210.3z"/>
		<path class="st2" d="M211.3,212c-0.2,0-0.4-0.2-0.4-0.4V204c0-0.2,0.2-0.4,0.4-0.4h4c0.2,0,0.4,0.2,0.4,0.4s-0.2,0.4-0.4,0.4h-3.6
			v3h2.8c0.2,0,0.4,0.2,0.4,0.4s-0.2,0.4-0.4,0.4h-2.8v3.1h3.7c0.2,0,0.4,0.2,0.4,0.4s-0.2,0.4-0.4,0.4L211.3,212L211.3,212z"/>
		<path class="st2" d="M223.3,203.8v7.8c0,0.2-0.2,0.4-0.4,0.4s-0.3-0.1-0.4-0.2l-4.4-6.7v6.4c0,0.2-0.2,0.4-0.4,0.4
			s-0.4-0.2-0.4-0.4v-7.8c0-0.2,0.2-0.4,0.4-0.4s0.3,0.1,0.3,0.2l4.5,6.7v-6.5c0-0.2,0.2-0.4,0.4-0.4S223.3,203.6,223.3,203.8z"/>
	</g>
	<g class="st1">
		<path class="st2" d="M229,211.6c0,0.2-0.2,0.4-0.4,0.4s-0.4-0.2-0.4-0.4v-7.8c0-0.2,0.2-0.4,0.4-0.4s0.4,0.2,0.4,0.4V211.6z"/>
		<path class="st2" d="M237,203.8v7.8c0,0.2-0.2,0.4-0.4,0.4s-0.3-0.1-0.4-0.2l-4.4-6.7v6.4c0,0.2-0.2,0.4-0.4,0.4s-0.4-0.2-0.4-0.4
			v-7.8c0-0.2,0.2-0.4,0.4-0.4s0.3,0.1,0.3,0.2l4.5,6.7v-6.5c0-0.2,0.2-0.4,0.4-0.4S237,203.6,237,203.8z"/>
	</g>
	<g class="st1">
		<path class="st2" d="M241.5,204.3c-0.2,0-0.4-0.2-0.4-0.4s0.2-0.4,0.4-0.4h5.3c0.2,0,0.4,0.2,0.4,0.4s-0.2,0.4-0.4,0.4h-2.2v7.3
			c0,0.2-0.2,0.4-0.4,0.4s-0.4-0.2-0.4-0.4v-7.3H241.5z"/>
		<path class="st2" d="M249,212c-0.2,0-0.4-0.2-0.4-0.4V204c0-0.2,0.2-0.4,0.4-0.4h4c0.2,0,0.4,0.2,0.4,0.4s-0.2,0.4-0.4,0.4h-3.6v3
			h2.8c0.2,0,0.4,0.2,0.4,0.4s-0.2,0.4-0.4,0.4h-2.8v3.1h3.7c0.2,0,0.4,0.2,0.4,0.4s-0.2,0.4-0.4,0.4L249,212L249,212z"/>
		<path class="st2" d="M254.7,207.7c0-3,1.5-4.4,3.9-4.4c1.2,0,2.2,0.5,2.8,1.3c0.1,0.1,0.1,0.2,0.1,0.3c0,0.2-0.2,0.4-0.4,0.4
			c-0.1,0-0.2,0-0.3-0.2c-0.4-0.6-1.2-1.1-2.2-1.1c-1.9,0-3,1.2-3,3.6c0,2.6,1.1,3.6,3,3.6c0.8,0,1.7-0.3,2.2-1
			c0.1-0.1,0.2-0.2,0.3-0.2c0.2,0,0.4,0.2,0.4,0.4c0,0.1,0,0.2-0.1,0.2c-0.6,0.8-1.7,1.3-2.8,1.3
			C256.2,212.1,254.7,210.8,254.7,207.7z"/>
		<path class="st2" d="M263.9,208v3.6c0,0.2-0.2,0.4-0.4,0.4s-0.4-0.2-0.4-0.4v-7.8c0-0.2,0.2-0.4,0.4-0.4s0.4,0.2,0.4,0.4v3.4h4.4
			v-3.4c0-0.2,0.2-0.4,0.4-0.4s0.4,0.2,0.4,0.4v7.8c0,0.2-0.2,0.4-0.4,0.4s-0.4-0.2-0.4-0.4V208H263.9z"/>
		<path class="st2" d="M277.1,203.8v7.8c0,0.2-0.2,0.4-0.4,0.4c-0.2,0-0.3-0.1-0.4-0.2l-4.4-6.7v6.4c0,0.2-0.2,0.4-0.4,0.4
			c-0.2,0-0.4-0.2-0.4-0.4v-7.8c0-0.2,0.2-0.4,0.4-0.4c0.2,0,0.3,0.1,0.3,0.2l4.5,6.7v-6.5c0-0.2,0.2-0.4,0.4-0.4
			C276.9,203.4,277.1,203.6,277.1,203.8z"/>
		<path class="st2" d="M278.5,207.7c0-3,1.5-4.4,3.9-4.4s3.9,1.4,3.9,4.4s-1.5,4.4-3.9,4.4C280,212.1,278.5,210.7,278.5,207.7z
			 M279.4,207.7c0,2.5,1.1,3.6,3,3.6s3-1.2,3-3.6c0-2.5-1.1-3.6-3-3.6S279.4,205.3,279.4,207.7z"/>
		<path class="st2" d="M292.2,211.2c0.2,0,0.4,0.2,0.4,0.4s-0.2,0.4-0.4,0.4h-3.9c-0.2,0-0.4-0.2-0.4-0.4v-7.7
			c0-0.2,0.2-0.4,0.4-0.4c0.2,0,0.4,0.2,0.4,0.4v7.3H292.2z"/>
		<path class="st2" d="M292.8,207.7c0-3,1.5-4.4,3.9-4.4s3.9,1.4,3.9,4.4s-1.5,4.4-3.9,4.4C294.3,212.1,292.8,210.7,292.8,207.7z
			 M293.7,207.7c0,2.5,1.1,3.6,3,3.6s3-1.2,3-3.6c0-2.5-1.1-3.6-3-3.6C294.8,204.1,293.7,205.3,293.7,207.7z"/>
		<path class="st2" d="M308,210.3v-1.8h-2.1c-0.2,0-0.4-0.2-0.4-0.4s0.2-0.4,0.4-0.4h2.5c0.2,0,0.4,0.2,0.4,0.4v2.2
			c0,0.2-0.1,0.3-0.2,0.4c-0.6,0.7-1.5,1.4-3,1.4c-2.4,0-3.9-1.3-3.9-4.4c0-3,1.5-4.4,3.9-4.4c1.2,0,2.2,0.5,2.8,1.3
			c0.1,0.1,0.1,0.2,0.1,0.3c0,0.2-0.2,0.4-0.4,0.4c-0.1,0-0.2,0-0.3-0.2c-0.4-0.6-1.2-1.1-2.2-1.1c-1.9,0-3,1.2-3,3.6
			c0,2.6,1.1,3.6,3,3.6C306.8,211.4,307.6,210.9,308,210.3z"/>
		<path class="st2" d="M312.2,211.6V208l-2.5-4c0-0.1-0.1-0.1-0.1-0.2c0-0.2,0.2-0.4,0.4-0.4c0.2,0,0.3,0.1,0.4,0.2l2.2,3.6l2.2-3.6
			c0.1-0.1,0.2-0.2,0.4-0.2c0.2,0,0.4,0.2,0.4,0.4c0,0.1,0,0.2-0.1,0.2l-2.5,4v3.6c0,0.2-0.2,0.4-0.4,0.4
			C312.4,212.1,312.2,211.9,312.2,211.6z"/>
	</g>
</g>
<g>
	<polygon class="st3" points="61.4,181.7 54.7,154.2 51.3,154.2 44.8,181.6 39.2,154.2 36,154.2 42.9,185.6 46.6,185.6 53.1,158.6 
		59.6,185.6 59.8,185.6 63.3,185.6 70.2,154.2 67.1,154.2 	"/>
	<path class="st3" d="M89.9,168c0-0.4,0-0.7-0.1-1.1c-0.2-1.7-1.1-3.1-2.6-4.1c-1.5-1.1-3.4-1.6-5.6-1.6c-2.7,0-4.9,0.8-6.5,2.3
		s-2.7,3.5-3.2,5.8c-0.3,1.4-0.5,2.8-0.5,4.2c0,0.9,0.1,1.8,0.2,2.8c0.4,3,1.5,5.3,3.3,7s4.1,2.5,6.8,2.5c1.5,0,2.9-0.2,4.2-0.7
		c1.3-0.5,2.5-1.2,3.6-2.1l0.2-0.2l-1.7-2.2l-0.2,0.2c-1,0.8-2,1.4-2.9,1.7c-0.9,0.4-2,0.6-3.2,0.6c-1.8,0-3.3-0.6-4.5-1.7
		c-1.2-1.1-2-2.8-2.3-5.2l0,0c5-0.4,8.8-1.3,11.5-2.7C88.7,172.1,89.9,170.3,89.9,168z M74.7,173.5c0-2.6,0.6-4.9,1.7-6.8l0,0
		c1.2-2,3-2.9,5.5-2.9c1.5,0,2.6,0.3,3.4,1c0.8,0.6,1.3,1.4,1.4,2.4c0,0.2,0.1,0.5,0.1,0.7c0,1.6-0.8,2.8-2.6,3.7
		C82.2,172.5,79,173.1,74.7,173.5L74.7,173.5z"/>
</g>
<g>
	<path class="st4" d="M116.6,180.3c-1.1,0.8-2.1,1.5-3.1,1.9s-2.2,0.6-3.6,0.6c-2.3,0-4.3-0.8-5.9-2.3s-2.7-3.9-3.1-7
		c-0.2-1.2-0.3-2.4-0.3-3.6c0-1.4,0.1-2.7,0.3-4.1c0.4-2.5,1.4-4.7,3-6.4c1.5-1.7,3.6-2.5,6.4-2.5c1.1,0,2.2,0.2,3.1,0.5
		s1.9,0.9,2.9,1.7l0.2,0.1l1.7-2L118,157c-1.2-0.9-2.5-1.7-3.7-2.1l-0.1,0.2l0.1-0.2c-1.3-0.5-2.8-0.7-4.5-0.7c-3.4,0-6.1,1-8.1,3
		s-3.3,4.5-3.9,7.4c-0.4,1.7-0.5,3.5-0.5,5.2c0,1.2,0.1,2.4,0.3,3.6c0.6,3.9,2,6.9,4.2,9s5,3.2,8.3,3.2s6.1-1,8.4-3.1l0.2-0.2
		l-1.8-2.3L116.6,180.3z"/>
	<path class="st4" d="M139.4,182.6c-0.2-0.3-0.4-0.7-0.5-1.4c0-0.2-0.1-0.6-0.1-1.3l0.1-16.8l-0.1-0.1c-1.4-0.7-2.6-1-3.8-1.3
		l-0.1,0.2l0.1-0.2c-1.2-0.3-2.6-0.5-4.1-0.5c-2.8,0-5.1,0.8-6.7,2.4c-1.6,1.6-2.7,3.6-3.2,5.9c-0.3,1.4-0.5,2.8-0.5,4.2
		c0,0.9,0.1,1.8,0.2,2.8c0.4,2.8,1.4,5.1,3,6.7c1.6,1.6,3.6,2.5,6,2.5c1.5,0,2.8-0.4,4-1.2c1-0.7,1.8-1.5,2.5-2.6
		c0.2,1,0.6,1.9,1.2,2.4c0.7,0.7,1.6,1.1,2.7,1.3h0.2l0.6-2.2l-0.2-0.1C140.1,183.1,139.7,182.9,139.4,182.6z M135.8,164.6v13.8
		c-0.8,1.5-1.7,2.7-2.7,3.5s-2.1,1.2-3.4,1.2c-1.6,0-2.9-0.5-3.9-1.7c-1-1.1-1.7-2.8-2-5c-0.1-0.8-0.2-1.7-0.2-2.5
		c0-1.1,0.1-2.2,0.3-3.3c0.4-2,1.1-3.6,2.3-4.9c1.2-1.3,2.8-1.9,4.9-1.9C132.8,163.7,134.3,163.9,135.8,164.6z"/>
	<path class="st4" d="M161.8,168.5c0-0.6,0-1.1-0.1-1.6c-0.3-1.8-1-3.3-2.1-4.3s-2.6-1.5-4.5-1.5c-1.7,0-3.3,0.6-4.7,1.7
		c-1.2,1-2.2,2.2-3,3.8v-5.5h-2.9v24.4h3.1v-14.2c0.9-2.3,1.9-4.1,3.2-5.5c1.2-1.4,2.5-2,4-2c1.2,0,2.1,0.3,2.7,0.8
		c0.6,0.5,1.1,1.4,1.2,2.7c0.1,0.4,0.1,0.9,0.1,1.4v0.1v16.7h3.1v-16.9L161.8,168.5z"/>
</g>
<g>
	<polygon class="st5" points="295.1,154.2 295.1,185.6 295.4,185.6 298.3,185.6 298.3,154.2 	"/>
	<polygon class="st5" points="324,154.2 303.4,154.2 303.4,157.1 312.5,157.1 312.5,185.6 315.7,185.6 315.7,157.1 324,157.1 	"/>
</g>
<g>
	<path class="st6" d="M201.6,180L201.6,180c-1.1,0.8-2.1,1.4-3,1.8c-0.9,0.4-2.1,0.6-3.5,0.6l0,0l0,0c-2.3,0-4.2-0.7-5.8-2.2
		s-2.6-3.7-3.1-6.8c-0.2-1.2-0.3-2.3-0.3-3.5c0-1.3,0.1-2.7,0.3-4c0.4-2.5,1.4-4.5,2.9-6.2c1.5-1.6,3.5-2.4,6.2-2.4
		c1.1,0,2.1,0.2,3,0.5s1.8,0.9,2.8,1.6l0.2,0.2l0.2,0.1l2.1-2.4l-0.4-0.3c-1.2-0.9-2.3-1.6-3.6-2.1l0,0l-0.2-0.1l0,0l-0.2-0.1l0,0
		c-1.3-0.4-2.7-0.7-4.3-0.7l0,0c-3.4,0-6.2,1-8.3,3.1c-2,2-3.3,4.5-4,7.5c-0.4,1.7-0.6,3.5-0.6,5.2l0,0l0,0l0,0l0,0l0,0
		c0,1.2,0.1,2.4,0.3,3.6c0.6,3.9,2,6.9,4.3,9.1c2.3,2.2,5.1,3.2,8.5,3.2l0,0l0,0l0,0c3.3,0,6.2-1,8.5-3.1l0.2-0.2l0.2-0.2l-2.1-2.6
		L201.6,180z"/>
	<path class="st6" d="M223.8,163.8L223.8,163.8l-0.2-0.2l0,0l-0.2-0.2l0,0c-1.8-1.6-4.1-2.3-6.8-2.3l0,0l0,0l0,0
		c-2.8,0-5.2,0.8-6.8,2.4c-1.6,1.6-2.7,3.5-3.1,5.8c-0.3,1.3-0.4,2.7-0.4,4l0,0l0,0l0,0l0,0l0,0c0,0.9,0.1,1.8,0.2,2.7
		c0.4,2.9,1.5,5.3,3.4,7c1.8,1.7,4.2,2.6,7,2.6l0,0l0,0l0,0c2.8,0,5.2-0.8,6.8-2.5c1.6-1.6,2.6-3.6,3.1-5.9c0.3-1.3,0.4-2.6,0.4-4
		l0,0l0,0l0,0l0,0l0,0c0-0.9-0.1-1.8-0.2-2.7C226.6,167.8,225.5,165.5,223.8,163.8z M212.3,166c1.1-1.2,2.5-1.8,4.6-1.8
		c1.8,0,3.2,0.5,4.2,1.6c1.1,1,1.8,2.6,2.1,4.8c0.1,0.8,0.2,1.7,0.2,2.6c0,1-0.1,1.9-0.2,2.9c-0.3,1.9-1,3.4-2.1,4.6
		c-1,1.2-2.5,1.8-4.5,1.8c-1.8,0-3.2-0.5-4.3-1.6c-1.1-1-1.8-2.6-2.1-4.8c-0.1-0.9-0.2-1.7-0.2-2.6c0-0.9,0.1-1.9,0.2-2.9
		C210.6,168.8,211.2,167.3,212.3,166z"/>
	<path class="st6" d="M246.9,163.6c-1.7-1.6-3.8-2.4-6.2-2.4l0,0l0,0l0,0c-2.6,0-4.8,0.8-6.3,2.5c-1.5,1.6-2.5,3.6-2.9,5.9
		c-0.2,1.3-0.4,2.6-0.4,3.8l0,0l0,0l0,0l0,0l0,0c0,1,0.1,1.9,0.2,2.9c0.4,2.8,1.4,5.1,3,6.7c1.6,1.7,3.6,2.5,6,2.5l0,0l0,0
		c1.7,0,3.2-0.5,4.4-1.4c0.9-0.6,1.6-1.5,2.2-2.5l0.3,3.8h3.2v-1V154h-3.6L246.9,163.6z M240.5,182.5c-1.4,0-2.5-0.5-3.5-1.5
		c-0.9-1-1.6-2.6-1.9-4.7c-0.1-0.9-0.2-1.8-0.2-2.8c0-0.9,0.1-1.9,0.2-2.8c0.3-1.9,0.9-3.4,2-4.7l0,0c1-1.2,2.4-1.8,4.3-1.8
		c1.2,0,2.3,0.3,3.2,0.8s1.7,1.3,2.4,2.2v9.5c-0.9,2-1.9,3.5-2.8,4.4C243.2,182.1,242,182.5,240.5,182.5z"/>
	<path class="st6" d="M270.8,162.7c-1.5-1.1-3.5-1.6-5.8-1.6l0,0l0,0l0,0c-2.7,0-5,0.8-6.7,2.3c-1.6,1.5-2.7,3.5-3.3,5.8
		c-0.3,1.4-0.5,2.8-0.5,4.2l0,0l0,0c0,0.9,0.1,1.8,0.2,2.7c0.4,3,1.6,5.3,3.4,7s4.2,2.5,7,2.5l0,0l0,0c1.5,0,2.9-0.2,4.2-0.7
		c1.3-0.5,2.5-1.2,3.7-2.1l0.2-0.2l0.2-0.1l-2-2.5l-0.4,0.3c-1,0.8-2,1.3-2.9,1.7c-0.9,0.3-2,0.5-3.1,0.5c-1.8,0-3.2-0.5-4.3-1.6
		c-1.1-1-1.8-2.6-2.2-4.7c4.9-0.4,8.7-1.3,11.3-2.6c2.4-1.2,3.7-3.1,3.7-5.5l0,0l0,0c0-0.4,0-0.7-0.1-1.1
		C273.3,165.3,272.3,163.8,270.8,162.7z M267.4,171.3c-1.9,0.9-4.9,1.6-9.1,2c0-2.5,0.6-4.6,1.6-6.4c1.1-1.8,2.8-2.7,5.3-2.7
		c1.4,0,2.5,0.3,3.2,0.9c0.8,0.6,1.2,1.3,1.3,2.2c0,0.2,0.1,0.5,0.1,0.7C269.8,169.3,269.1,170.4,267.4,171.3z"/>
	<path class="st6" d="M175.1,149.3L175.1,149.3c-1.2,1-1.7,2.6-1.7,4.7l0,0l0,0v11.5l0,0c0,1.1-0.3,1.8-0.7,2.2l0,0
		c-0.4,0.4-1.1,0.6-2.2,0.6l0,0h-0.3H170v3.3h0.5l0,0l0,0l0,0c1.1,0,1.8,0.2,2.2,0.6l0,0c0.4,0.4,0.7,1,0.7,2.1v11.5l0,0l0,0
		c0,2.1,0.5,3.7,1.7,4.7s2.9,1.4,5.2,1.5h0.3h0.3v-3h-0.5l0,0c-1.3,0-2.2-0.3-2.7-0.7l0,0l0,0c-0.5-0.4-0.8-1.2-0.8-2.3v-11.4l0,0
		c0-1.6-0.3-2.7-0.9-3.5l0,0c-0.4-0.4-0.9-0.8-1.5-1.1c0.6-0.3,1.1-0.6,1.5-1.1l0,0c0.6-0.8,0.9-2,0.9-3.5V154
		c0-1.2,0.3-1.9,0.8-2.3l0,0c0.5-0.4,1.3-0.7,2.7-0.7l0,0l0,0h0.3h0.3v-3h-0.5C178,147.9,176.3,148.3,175.1,149.3z"/>
	<path class="st6" d="M286.7,168.3c-1.1,0-1.8-0.2-2.2-0.6l0,0c-0.4-0.4-0.7-1.1-0.7-2.2V154l0,0c0-1.9-0.5-3.5-1.5-4.5l0,0
		l-0.2-0.2l0,0l-0.2-0.2l0,0c-1.2-0.9-2.8-1.3-5-1.3h-0.3h-0.3v3h0.5l0,0c1.3,0,2.2,0.3,2.7,0.7l0,0c0.5,0.4,0.8,1.2,0.8,2.3v11.4
		c0,1.5,0.3,2.7,0.9,3.5l0,0c0.4,0.5,0.9,0.8,1.5,1.1c-0.6,0.3-1.1,0.6-1.5,1.1l0,0c-0.7,0.8-0.9,1.9-0.9,3.5v11.4
		c0,1.2-0.3,1.9-0.8,2.3l0,0c-0.5,0.4-1.3,0.7-2.7,0.7l0,0h-0.3h-0.3v3h0.5c2.3,0,4-0.4,5.2-1.4s1.7-2.6,1.7-4.7l0,0l0,0v-11.5
		c0-1.1,0.3-1.8,0.7-2.1l0,0c0.4-0.4,1.1-0.6,2.2-0.6l0,0l0,0h0.3h0.3v-3.3L286.7,168.3L286.7,168.3z"/>
</g>
</svg>
